<svg viewBox="0 0 24 24" fill="none" xmlns="http://www.w3.org/2000/svg">
<path d="M15.5001 0.5C13.5001 0.666667 9.7001 1.9 10.5001 5.5C13.7002 6.7 15.1668 2.66667 15.5001 0.5Z" />
<path d="M0.999767 15C0.199767 17 4.3331 21.8334 6.49977 24C9.49953 24.5001 10 22 11.5 23C12.7 23.8 14.6667 24 15.5 24C17 25 19.6667 20 20.5 17.5C19.6667 17.1667 17.9 16 17.5 14C17.1 12 19 9.16669 20 8.00003C18.8 6.00003 17.1667 5.83336 16.5 6.00003H13C13.4 6.40003 11.8333 6.83336 11 7.00003C10.6 7.40003 9.5 6.50003 9 6.00003H5.5C2.3 6.40003 0.999767 11 0.999767 11V15Z" />
</svg>
