<svg width="24" height="24" viewBox="0 0 24 24" fill="none" xmlns="http://www.w3.org/2000/svg">
<path d="M9.23005 22.7501C9.22005 22.7501 9.21005 22.7501 9.19005 22.7501C7.51005 22.7401 6.31005 21.2301 5.46005 19.9201C3.29005 16.5901 2.85005 12.4001 4.42005 9.97007C5.47005 8.34007 7.17005 7.33005 8.85005 7.33005C9.72005 7.33005 10.4001 7.57007 11.0001 7.79007C11.4801 7.96007 11.89 8.11005 12.32 8.11005C12.7 8.11005 13.03 7.98007 13.45 7.82007C14.03 7.60007 14.74 7.33005 15.77 7.33005C17.25 7.33005 18.7701 8.12006 19.8301 9.46006C19.9701 9.63006 20.0201 9.86007 19.9801 10.0701C19.9401 10.2901 19.8001 10.4701 19.6101 10.5801C18.4801 11.2001 17.86 12.3301 17.95 13.6101C18.04 14.9101 18.8401 16.0101 20.0401 16.4601C20.2301 16.5301 20.3901 16.6801 20.4701 16.8701C20.5501 17.0601 20.55 17.2801 20.46 17.4601C20.02 18.4401 19.8001 18.8901 19.2301 19.7701C18.2801 21.2301 17.0801 22.7301 15.4401 22.7501C14.7301 22.7501 14.2501 22.5401 13.8301 22.3401C13.4101 22.1501 13 22.0001 12.35 21.9801C11.65 21.9801 11.28 22.1501 10.85 22.3401C10.41 22.5401 9.93005 22.7501 9.23005 22.7501ZM8.85005 8.83005C7.67005 8.83005 6.46005 9.58006 5.68005 10.7801C4.62005 12.4201 4.63005 15.8901 6.72005 19.1001C7.37005 20.1001 8.24005 21.2401 9.21005 21.2501C9.57005 21.2401 9.84005 21.1401 10.21 20.9801C10.7 20.7601 11.31 20.4901 12.32 20.4801C13.31 20.4601 13.9501 20.7501 14.4401 20.9801C14.8001 21.1501 15.0401 21.2601 15.4101 21.2501C16.3501 21.2401 17.26 20.0201 17.96 18.9601C18.33 18.3901 18.54 18.0301 18.77 17.5201C17.43 16.7301 16.5501 15.3401 16.4401 13.7201C16.3301 12.1901 16.95 10.7601 18.09 9.81006C17.39 9.19006 16.5601 8.84006 15.7601 8.84006C15.0101 8.84006 14.5101 9.03008 13.9801 9.23008C13.4801 9.42008 12.96 9.62006 12.31 9.62006C11.62 9.62006 11.05 9.41007 10.49 9.22007C9.96005 9.01007 9.45005 8.83005 8.85005 8.83005ZM11.82 7.13007C11.79 7.13007 11.7501 7.13007 11.7201 7.13007C11.3701 7.12007 11.0701 6.86007 11.0101 6.51007C10.8001 5.38007 11.2 4.08005 12.07 3.02005C12.87 2.05005 14.1901 1.33006 15.3601 1.25006C15.7701 1.23006 16.1001 1.50008 16.1501 1.89008C16.3201 3.06008 15.9501 4.34007 15.1201 5.41007C14.3101 6.46007 13.02 7.13007 11.82 7.13007ZM14.6501 2.95008C14.1101 3.17008 13.5801 3.54007 13.2301 3.97007C12.9001 4.37007 12.59 4.93007 12.49 5.51007C13.03 5.33007 13.5701 4.97006 13.9401 4.49006C14.1401 4.24006 14.5201 3.66008 14.6501 2.95008Z" fill="black"/>
</svg>
