<svg width="1886" height="1198" viewBox="0 0 1886 1198" fill="none" xmlns="http://www.w3.org/2000/svg">
<path d="M519.291 505.855C467.71 338.457 275.003 223.732 62.8565 234.1C39.3769 235.246 18.706 221.654 15.1363 202.782L0.539414 125.767C-3.51452 104.401 15.7589 84.8551 42.3101 83.215C109.982 79.0363 177.418 83.743 243.374 97.2678C322.391 113.477 395.902 141.617 461.871 180.888C527.841 220.16 582.991 268.631 625.786 324.943C661.51 371.954 687.287 422.751 702.728 476.412C708.788 497.463 691.603 518.256 665.287 521.547L570.414 533.399C547.17 536.308 524.991 524.378 519.291 505.855Z" fill="#9AC3FE" fill-opacity="0.13"/>
<path d="M1099.08 382.427C1309.29 356.961 1468.61 212.356 1476.44 39.9253C1477.31 20.84 1495.98 5.46172 1519.46 4.39456L1615.29 0.0585309C1641.87 -1.14343 1663.98 16.3243 1663.41 37.9258C1661.97 93.0136 1649.68 147.046 1626.7 199.033C1599.18 261.31 1557.56 317.993 1503.02 367.498C1448.48 417.003 1383.71 456.87 1310.54 485.997C1249.45 510.306 1184.67 526.224 1117.4 533.503C1091.01 536.356 1067.18 520.461 1065.69 498.882L1060.35 421.08C1059.07 402.018 1075.82 385.246 1099.08 382.427Z" fill="#9AC3FE" fill-opacity="0.13"/>
<path d="M1236.48 719.1C1344.81 867.537 1569.84 932.762 1769.49 873.584C1791.58 867.036 1816.17 875.256 1826.24 892.519L1867.32 962.937C1878.71 982.468 1867.13 1005.67 1842.27 1013.41C1778.88 1033.12 1712.61 1044.27 1644.65 1046.61C1563.22 1049.41 1482.88 1039.52 1405.84 1017.19C1328.79 994.86 1258.89 961.209 1198.08 917.179C1147.32 880.418 1104.73 837.733 1071.06 789.886C1057.85 771.123 1067 747.206 1091.05 737.944L1177.79 704.569C1199.05 696.391 1224.5 702.674 1236.48 719.1Z" fill="#9AC3FE" fill-opacity="0.13"/>
</svg>
