<svg width="663" height="723" viewBox="0 0 663 723" fill="none" xmlns="http://www.w3.org/2000/svg">
<path d="M266.29 42.3627C266.29 42.3627 273.012 0.878418 324.513 0.878418C376.013 0.878418 400.991 53.9455 412.618 85.0793C424.244 116.213 454.218 145.54 493.275 162.873C532.332 180.206 561.852 198.853 556.856 238.119C556.856 238.119 640.42 297.265 481.194 308.191C321.969 319.117 243.765 228.508 253.393 181.849C263.021 135.189 200.893 71.9357 266.29 42.3627Z" fill="#3B2645"/>
<path d="M362.661 141.925C362.661 141.925 355.395 205.671 386.277 211.257C386.277 211.257 399.084 325.688 327.056 325.688C255.027 325.688 262.385 214.707 262.385 214.707C262.385 214.707 293.085 207.396 290.633 145.868C288.18 84.3397 363.66 99.1262 362.661 141.925Z" fill="#FDBCA0"/>
<path d="M341.225 147.594C347.311 126.646 315.975 122.374 294.902 121.799C291.905 127.96 290.179 135.929 290.542 145.868C290.996 154.576 290.542 163.366 289.361 172.073C301.351 172.895 333.868 172.813 341.225 147.594Z" fill="#E0855C"/>
<path d="M281.868 128.045C288.367 126.025 290.251 115.483 286.076 104.499C281.901 93.5153 273.248 86.2493 266.749 88.27C260.25 90.2906 258.365 100.833 262.54 111.816C266.715 122.8 275.368 130.066 281.868 128.045Z" fill="#E0855C"/>
<path d="M390.046 111.716C394.221 100.733 392.337 90.1904 385.837 88.1698C379.338 86.1491 370.685 93.4151 366.51 104.399C362.335 115.383 364.219 125.925 370.719 127.945C377.218 129.966 385.871 122.7 390.046 111.716Z" fill="#E0855C"/>
<path d="M270.196 52.6303C270.196 52.6303 265.2 162.625 322.787 162.872C367.566 163.036 380.373 113.666 381.1 58.0521C381.826 2.43844 270.923 9.91381 270.196 52.6303Z" fill="#FDBCA0"/>
<path d="M327.328 130.671C317.7 130.671 309.253 125.413 309.162 125.331C308.708 125.085 308.617 124.592 308.981 124.181C309.253 123.77 309.798 123.688 310.252 124.017C310.434 124.099 326.783 134.203 338.864 125.577C339.227 125.331 339.863 125.331 340.135 125.742C340.408 126.153 340.408 126.645 339.954 126.892C335.866 129.685 331.506 130.671 327.328 130.671Z" fill="#472938"/>
<path d="M289.906 85.1606C289.906 85.1606 297.445 89.5144 310.161 85.9821C310.161 85.9 299.353 95.9219 289.906 85.1606Z" fill="#472938"/>
<path d="M362.207 86.0645C362.207 86.0645 354.668 90.4183 341.952 86.8859C341.952 86.8859 352.761 96.908 362.207 86.0645Z" fill="#472938"/>
<path d="M285.546 71.7713C285.546 71.7713 295.084 62.2422 308.981 65.1995C316.065 66.6781 313.34 58.792 300.533 59.2849C287.726 59.7778 285.546 71.7713 285.546 71.7713Z" fill="#472938"/>
<path d="M367.294 71.7713C367.294 71.7713 357.757 62.2422 343.86 65.1995C336.775 66.6781 339.5 58.792 352.307 59.2849C365.114 59.7778 367.294 71.7713 367.294 71.7713Z" fill="#472938"/>
<path d="M325.148 112.27C322.423 112.27 316.61 110.463 314.612 108.656C313.886 107.999 313.613 107.341 313.704 106.684C313.886 105.699 314.703 102.577 315.884 98.6338C317.428 92.9657 319.426 85.9832 320.062 82.533C320.698 79.2471 320.062 75.7969 318.336 72.8396C318.064 72.4289 318.245 71.936 318.7 71.6895C319.154 71.4431 319.699 71.6074 319.971 72.0181C321.879 75.304 322.605 79.0828 321.879 82.7794C321.243 86.3117 319.245 93.3764 317.7 99.0446C316.61 102.823 315.702 106.109 315.611 106.931C315.611 107.013 315.702 107.177 315.975 107.506C317.882 109.231 323.877 110.874 325.603 110.627C327.873 110.299 332.596 108.327 334.231 106.602C334.595 106.274 335.14 106.274 335.503 106.52C335.866 106.849 335.866 107.341 335.594 107.67C333.596 109.642 328.509 111.86 325.875 112.188C325.512 112.27 325.33 112.27 325.148 112.27Z" fill="#472938"/>
<path d="M271.014 80.8069C271.014 80.8069 274.647 54.6019 283.639 44.9907C283.639 44.9907 298.717 38.9118 322.696 51.8089C346.675 64.706 363.479 75.5495 385.732 72.3457C385.732 72.3457 387.821 9.83169 330.326 13.1997C272.83 16.5678 261.023 43.7585 271.014 80.8069Z" fill="#3B2645"/>
<path d="M650.956 467.063C650.048 465.749 647.323 467.967 647.323 467.967C647.323 467.967 644.507 465.092 636.877 467.145C629.248 469.199 606.631 486.778 606.631 486.778C596.458 486.614 579.836 495.65 579.836 495.65C579.836 495.65 567.301 490.968 555.948 475.524C544.594 460.081 532.241 452.523 532.241 452.523C532.241 452.523 505.628 355.754 487.644 295.375C469.387 302.358 445.68 329.877 428.786 352.057C429.149 362.49 429.512 369.144 429.512 369.144C429.512 369.144 488.733 511.258 496.363 515.53C503.993 519.802 591.099 529.331 592.007 528.756C592.916 528.181 600.909 530.07 604.178 528.756C607.448 527.441 611.445 529.577 615.441 527.113C619.438 524.648 626.341 528.427 629.157 526.045C631.972 523.662 636.877 524.648 640.147 523.252C643.417 521.855 661.674 498.525 662.037 494.336C662.401 490.146 651.864 468.377 650.956 467.063Z" fill="#FDBCA0"/>
<path d="M444.045 323.717C444.045 323.717 475.018 371.526 450.494 418.597L429.421 368.98L444.045 323.717Z" fill="#E0855C"/>
<path d="M487.553 295.211C481.104 273.525 475.745 256.52 473.111 250.359C463.119 226.701 444.681 225.633 444.681 225.633C426.515 225.879 427.423 313.941 428.695 351.893C445.589 329.713 469.296 302.276 487.553 295.211Z" fill="#FDBCA0"/>
<path d="M512.077 457.535C511.713 457.535 511.35 457.288 511.168 456.96C511.077 456.549 511.35 456.056 511.804 455.974L529.607 451.702C530.061 451.62 530.606 451.867 530.697 452.277C530.787 452.688 530.515 453.181 530.061 453.263L512.258 457.535C512.258 457.535 512.167 457.535 512.077 457.535Z" fill="#472938"/>
<path d="M600.182 513.477C599.728 513.477 599.274 513.148 599.274 512.655C598.819 502.633 585.74 502.223 585.195 502.223C584.65 502.223 584.287 501.812 584.287 501.401C584.287 500.908 584.741 500.58 585.195 500.58C585.377 500.58 600.454 501.072 600.999 512.573C601.181 513.066 600.727 513.477 600.182 513.477C600.273 513.477 600.273 513.477 600.182 513.477Z" fill="#472938"/>
<path d="M596.185 520.951C596.095 520.951 595.913 520.951 595.822 520.869C595.368 520.705 595.186 520.212 595.368 519.801C596.458 517.666 606.268 498.443 610.355 495.979C613.716 493.925 617.803 494.582 619.438 495.897C620.528 496.718 620.165 497.539 620.074 497.786C619.62 498.689 614.351 510.519 611.717 516.598C611.536 517.008 610.991 517.255 610.537 517.09C610.082 516.926 609.81 516.433 609.992 516.023C610.264 515.283 617.349 499.347 618.348 497.293C618.166 497.129 617.712 496.8 616.804 496.636C616.077 496.472 613.716 496.061 611.354 497.457C608.266 499.347 599.909 514.79 596.912 520.623C596.821 520.787 596.549 520.951 596.185 520.951Z" fill="#472938"/>
<path d="M624.888 514.79C624.343 514.79 623.98 514.462 623.98 513.969C623.98 513.805 623.98 513.805 626.523 505.672C628.612 499.018 631.973 488.175 632.336 486.45C631.791 485.957 629.248 484.971 627.522 485.464C626.159 485.875 621.981 491.461 618.893 496.389C618.621 496.8 618.076 496.882 617.621 496.718C617.167 496.472 617.076 495.979 617.258 495.568C618.893 493.021 624.343 484.642 626.886 483.821C629.066 483.164 631.882 484.067 633.153 484.889C633.789 485.3 634.152 485.792 634.152 486.203C634.152 486.696 632.881 490.886 628.249 506.001C627.068 509.862 625.887 513.558 625.796 513.969C625.796 514.462 625.342 514.79 624.888 514.79Z" fill="#472938"/>
<path d="M637.695 513.066C637.604 513.066 637.604 513.066 637.513 513.066C637.059 512.983 636.696 512.49 636.786 512.08C639.966 499.265 644.598 479.714 644.689 477.578C644.325 477.085 642.69 476.264 639.875 476.264C638.331 476.264 634.425 480.946 631.791 485.3C631.518 485.71 630.973 485.875 630.519 485.628C630.065 485.382 629.883 484.889 630.156 484.478C631.609 482.178 636.514 474.621 639.875 474.621C643.054 474.621 645.688 475.606 646.414 477.003C646.596 477.331 647.05 478.235 638.512 512.408C638.512 512.819 638.149 513.066 637.695 513.066Z" fill="#472938"/>
<path d="M644.507 477.085C644.144 477.085 643.781 476.839 643.599 476.51C642.146 472.321 646.415 467.638 646.596 467.474C646.96 467.145 647.505 467.063 647.868 467.392C648.231 467.72 648.322 468.213 647.959 468.542C647.959 468.624 644.144 472.731 645.325 476.099C645.506 476.51 645.234 477.003 644.689 477.167C644.689 477.085 644.598 477.085 644.507 477.085Z" fill="#472938"/>
<path d="M639.693 505.097C639.511 505.097 639.33 505.015 639.239 504.933C638.785 504.686 638.694 504.193 638.966 503.783L646.414 493.596L644.234 481.274C644.144 480.863 644.507 480.371 644.961 480.371C645.415 480.288 645.96 480.617 645.96 481.028L648.322 494.007L640.51 504.768C640.238 504.933 639.965 505.097 639.693 505.097Z" fill="#472938"/>
<path d="M9.78642 480.781C10.6039 479.467 13.4196 481.52 13.4196 481.52C13.4196 481.52 16.1445 478.563 23.8651 480.37C31.5856 482.177 54.929 498.853 54.929 498.853C65.0111 498.36 82.178 506.739 82.178 506.739C82.178 506.739 94.5309 501.564 105.249 485.71C115.967 469.855 127.956 461.805 127.956 461.805C127.956 461.805 150.21 364.214 165.56 303.097C184.089 309.422 208.977 336.038 226.87 357.56C226.961 367.993 226.961 374.647 226.961 374.647C226.961 374.647 174.098 518.733 166.65 523.333C159.202 527.933 72.55 540.502 71.7325 540.009C70.9151 539.516 62.922 541.652 59.5613 540.42C56.2006 539.188 52.3857 541.57 48.2076 539.188C44.0294 536.805 37.3988 540.831 34.4014 538.613C31.404 536.395 26.6808 537.462 23.2293 536.23C19.7777 534.998 0.61259 512.326 0.0676094 508.136C-0.477371 503.946 8.96895 482.095 9.78642 480.781Z" fill="#FDBCA0"/>
<path d="M210.248 330.124C210.248 330.124 181.455 379.083 207.977 425.168L226.779 374.812L210.248 330.124Z" fill="#E0855C"/>
<path d="M165.469 303.179C170.919 281.328 175.551 264.16 177.913 257.834C186.814 233.847 205.253 232.04 205.253 232.04C223.419 231.629 226.325 319.691 226.78 357.643C208.886 336.203 183.999 309.587 165.469 303.179Z" fill="#FEE6C6"/>
<path d="M148.121 466.242C148.03 466.242 148.03 466.242 147.939 466.242L129.955 462.627C129.5 462.545 129.137 462.052 129.228 461.641C129.319 461.231 129.864 460.902 130.318 460.984L148.302 464.599C148.756 464.681 149.12 465.174 149.029 465.585C148.938 465.995 148.484 466.242 148.121 466.242Z" fill="#472938"/>
<path d="M62.4679 525.305C61.9229 525.305 61.5596 524.894 61.5596 524.484C61.6504 512.901 76.6374 511.915 76.819 511.915C77.2732 511.915 77.7273 512.244 77.8182 512.654C77.8182 513.147 77.4548 513.476 77.0007 513.558C76.4557 513.558 63.467 514.462 63.467 524.484C63.3762 524.976 63.0129 525.305 62.4679 525.305Z" fill="#472938"/>
<path d="M66.9188 532.616C66.5555 532.616 66.283 532.452 66.1013 532.205C62.9223 526.537 53.8393 511.34 50.6602 509.533C48.2078 508.219 45.8462 508.711 45.1196 508.876C44.3021 509.122 43.848 509.451 43.6663 509.615C44.7563 511.669 52.4768 527.359 52.8401 528.098C53.0218 528.509 52.8401 529.002 52.386 529.166C51.9318 529.33 51.3869 529.166 51.2052 528.755C48.2078 522.759 42.4855 511.094 42.0314 510.19C41.6681 509.615 41.9406 508.876 42.5764 508.301C44.1205 506.986 48.2078 506.165 51.6594 508.054C55.9284 510.354 66.5555 529.248 67.7363 531.384C67.9179 531.795 67.8271 532.288 67.3729 532.452C67.1913 532.616 67.0096 532.616 66.9188 532.616Z" fill="#472938"/>
<path d="M37.8532 527.442C37.399 527.442 37.0357 527.195 36.9449 526.784C36.854 526.374 35.6732 523.088 34.3108 519.227C28.861 504.03 27.4077 499.758 27.4077 499.265C27.4077 498.772 27.6802 498.361 28.316 497.951C29.5876 497.047 32.3125 496.061 34.5833 496.636C37.2174 497.294 43.0305 505.508 44.7562 507.973C45.0287 508.383 44.8471 508.876 44.4838 509.123C44.0296 509.369 43.4846 509.205 43.2122 508.876C39.8514 504.03 35.4008 498.608 34.1291 498.279C32.3125 497.786 29.8601 498.936 29.3151 499.429C29.7693 500.908 33.675 512.08 36.1274 518.816C38.8523 526.456 38.8523 526.456 38.8523 526.62C38.8523 527.031 38.3981 527.442 37.8532 527.442C37.944 527.442 37.944 527.442 37.8532 527.442Z" fill="#472938"/>
<path d="M25.0459 526.291C24.6825 526.291 24.3192 526.044 24.1376 525.715C14.1462 491.789 14.6004 490.885 14.6912 490.557C15.327 489.078 17.8703 488.01 21.1402 487.928H21.231C24.5917 487.928 29.769 495.239 31.3131 497.457C31.5856 497.868 31.404 498.36 31.0406 498.607C30.5865 498.853 30.0415 498.689 29.769 498.361C26.9533 494.171 22.8659 489.571 21.3218 489.571C18.5969 489.653 16.962 490.556 16.5987 491.049C16.7803 493.185 22.321 512.572 26.045 525.223C26.1358 525.633 25.8633 526.126 25.4092 526.208C25.1367 526.208 25.0459 526.291 25.0459 526.291Z" fill="#472938"/>
<path d="M16.6897 490.639C16.5989 490.639 16.5081 490.639 16.4172 490.639C15.9631 490.557 15.5998 490.064 15.7814 489.653C16.7806 486.203 12.8749 482.26 12.784 482.178C12.4207 481.849 12.5115 481.356 12.8749 481.028C13.2382 480.699 13.7832 480.781 14.1465 481.11C14.3281 481.274 18.7788 485.792 17.5072 490.064C17.4164 490.392 17.053 490.639 16.6897 490.639Z" fill="#472938"/>
<path d="M22.6846 518.323C22.4121 518.323 22.1396 518.241 21.9579 517.994L13.6924 507.561L15.4182 494.5C15.509 494.089 15.9631 493.761 16.4173 493.761C16.8714 493.843 17.2348 494.254 17.2348 494.664L15.5998 507.069L23.502 517.008C23.7745 517.337 23.6837 517.912 23.3204 518.158C23.0479 518.323 22.8662 518.323 22.6846 518.323Z" fill="#472938"/>
<path d="M386.187 211.256L444.681 225.632C444.681 225.632 437.596 311.147 449.677 328.809C461.757 346.471 455.036 386.641 440.412 406.602C440.412 406.602 416.978 474.784 423.336 490.803C429.694 506.822 451.039 542.227 451.039 542.227C451.039 542.227 355.758 585.93 217.878 547.074C217.878 547.074 245.218 494.993 240.949 475.031C236.68 455.069 207.161 399.456 207.524 373.168C207.887 346.881 217.152 276.728 203.618 232.368L262.113 214.706C262.113 214.706 263.112 318.869 329.69 318.869C396.269 318.869 386.187 211.256 386.187 211.256Z" fill="#FEE6C6"/>
<path d="M440.503 406.602C440.503 406.602 433.237 419.746 387.095 425.249C387.095 425.249 431.511 428.289 427.06 452.44L440.503 406.602Z" fill="#FEE6C6"/>
<path d="M213.882 402.906C213.882 402.906 224.781 421.389 274.102 425.578C274.102 425.578 220.058 418.185 230.14 444.965L213.882 402.906Z" fill="#FEE6C6"/>
<path d="M207.797 377.769C207.342 377.769 206.888 377.44 206.888 377.029C206.797 375.633 206.707 374.401 206.797 373.168C206.888 367.254 207.433 359.203 207.978 349.839C208.796 337.024 209.795 321.087 210.067 304.74C210.067 304.247 210.431 303.918 210.976 303.918C211.521 303.918 211.884 304.329 211.884 304.74C211.611 321.087 210.612 337.106 209.795 349.921C209.159 359.286 208.705 367.336 208.614 373.251C208.614 374.401 208.614 375.633 208.705 376.947C208.705 377.276 208.342 377.687 207.797 377.769Z" fill="#FEE6C6"/>
<path d="M449.677 329.63C449.404 329.63 449.041 329.466 448.859 329.219C444.863 323.387 442.501 309.997 441.865 289.46C441.865 288.967 442.229 288.639 442.774 288.639C443.228 288.639 443.682 288.967 443.682 289.46C444.318 309.75 446.588 322.894 450.403 328.398C450.676 328.809 450.494 329.301 450.131 329.548C450.04 329.548 449.858 329.63 449.677 329.63Z" fill="#FEE6C6"/>
<path d="M221.057 540.996C221.057 540.996 272.376 558.657 332.415 556.768C392.454 554.879 512.622 515.612 568.755 523.663C624.888 531.713 621.254 553.318 619.347 563.258C617.44 573.197 500.905 722.294 398.539 722.294H241.676C241.676 722.294 48.9343 612.464 42.667 580.755C36.3997 549.046 40.9412 530.07 94.7126 529.167C148.484 528.263 206.615 536.724 221.057 540.996Z" fill="#3F4553"/>
<path d="M330.417 589.381C330.417 589.381 407.077 560.547 471.112 550.607C471.112 550.607 512.349 608.439 500.269 657.317C500.178 657.317 353.578 628.236 330.417 589.381Z" fill="#FDBCA0"/>
<path d="M330.417 589.38C330.417 589.38 515.891 611.314 500.178 657.316C484.464 703.319 330.417 589.38 330.417 589.38Z" fill="#E0855C"/>
<path d="M413.799 672.595C413.799 672.595 223.691 687.382 182 695.104C140.309 702.826 98.0732 699.375 72.2775 707.508C46.4818 715.64 32.2214 721.884 29.1332 722.212C26.045 722.541 18.9602 686.314 31.9489 673.499C31.9489 673.499 27.9524 660.437 46.1184 650.333C64.2844 640.229 94.44 653.537 105.612 650.333C116.784 647.13 124.777 644.172 136.676 646.472C148.575 648.773 177.64 655.262 177.64 655.262C177.64 655.262 327.328 569.254 413.799 672.595Z" fill="#FDBCA0"/>
<path d="M177.731 655.263L290.633 683.028L413.798 672.596C413.798 672.596 357.665 620.35 280.187 625.197C202.709 630.044 177.731 655.263 177.731 655.263Z" fill="#E0855C"/>
<path d="M217.06 552.003C217.06 552.003 275.373 562.683 359.664 602.606C443.954 642.53 513.711 626.182 538.326 633.904C562.941 641.626 609.628 635.629 617.258 641.626C624.888 647.623 629.883 658.138 625.342 662.656C625.342 662.656 645.688 704.879 643.78 707.672C641.873 710.465 634.788 710.219 631.427 709.562C628.067 708.905 598.456 695.597 564.395 690.093C530.333 684.589 436.415 672.76 361.571 669.31C286.727 665.859 177.731 659.041 177.731 659.041C177.731 659.041 180.274 575.99 217.06 552.003Z" fill="#FDBCA0"/>
<path d="M619.165 664.381C616.259 664.381 612.353 663.888 607.358 662.327C606.904 662.163 606.631 661.67 606.813 661.259C606.994 660.848 607.539 660.602 607.994 660.766C619.256 664.381 624.706 661.916 624.797 661.916C625.251 661.67 625.796 661.834 625.978 662.245C626.25 662.656 626.068 663.149 625.614 663.313C625.523 663.313 623.434 664.381 619.165 664.381Z" fill="#472938"/>
<path d="M41.1226 676.046C34.7645 676.046 31.6763 674.239 31.4946 674.157C31.0405 673.91 30.9496 673.418 31.2221 673.007C31.4946 672.596 32.0396 672.514 32.4937 672.76C32.4937 672.76 35.7636 674.568 42.1217 674.321C48.7523 674.157 55.9279 671.2 56.0187 671.2C56.4729 671.035 57.0179 671.2 57.1996 671.61C57.3812 672.021 57.1996 672.514 56.7454 672.678C56.4729 672.843 49.1157 675.718 42.2126 675.964C41.8493 676.046 41.4859 676.046 41.1226 676.046Z" fill="#472938"/>
</svg>
