<svg width="243" height="718" viewBox="0 0 243 718" fill="none" xmlns="http://www.w3.org/2000/svg">
<path d="M80.3329 124.343C80.3329 124.343 68.7292 131.816 57.7291 149.926C46.729 168.035 34.991 185.068 34.991 185.068C34.991 185.068 30.6983 148.377 32.7105 143.53C34.7227 138.683 41.9667 127.979 43.6436 124.343C45.3204 120.708 53.3022 115.524 53.3693 113.437C53.4363 111.35 52.5644 104.82 52.229 104.618C51.8936 104.416 47.8692 105.897 47.2656 108.051C46.796 109.6 46.4607 110.946 46.4607 110.946C46.4607 110.946 41.0277 113.976 40.0887 114.043C39.1496 114.11 34.7227 111.754 34.6557 111.35C34.5886 110.946 38.3447 102.194 39.485 101.723C40.6252 101.252 46.9302 106.166 48.1375 106.166C49.3448 106.166 51.8936 104.551 52.0278 103.608C52.1619 102.666 44.1802 94.4524 43.5094 94.385C42.8387 94.3177 35.9972 93.1059 35.0581 93.7791C34.1191 94.4523 29.0215 98.8956 29.0215 98.8956C29.0215 98.8956 29.0215 83.6135 29.0215 80.5167C29.0215 77.4198 28.3507 67.8601 26.9422 67.1869C25.5336 66.6483 23.9909 66.5136 22.5153 66.7156C21.8446 66.9176 21.4421 71.1589 21.4421 71.1589C21.4421 71.1589 17.8872 70.6203 16.9482 71.3608C16.0091 72.1014 14.064 101.05 14.064 101.319C14.064 101.588 9.03346 95.4622 8.4298 94.3177C7.82613 93.1732 5.74685 86.1717 4.80782 85.9024C3.86878 85.6331 1.18583 85.4312 0.850463 86.1044C0.515094 86.7776 2.66145 96.8759 2.7956 98.0204C2.92975 99.1649 9.30177 112.764 9.63714 114.851C9.97251 116.938 11.314 134.442 11.7164 138.01C12.1189 141.578 7.62492 183.52 6.61882 201.023C5.61271 218.527 6.48466 234.213 7.55785 235.829C8.63103 237.445 17.4177 243.167 22.1129 240.811C26.808 238.454 39.7533 228.289 52.0949 216.44C64.4364 204.591 78.9915 189.04 78.9915 189.04L80.3329 124.343Z" fill="#FDBCA0"/>
<path d="M34.9238 185C34.9238 185 36.1311 194.425 36.6007 202.908C36.6007 202.908 39.2165 194.897 37.9421 180.557L34.9238 185Z" fill="#DE835C"/>
<path d="M13.3263 110.071C13.2592 110.071 13.1921 110.071 13.125 110.004C12.9909 109.869 12.9909 109.667 13.125 109.532C15.1372 107.243 26.6069 99.9726 27.0764 99.636C27.2106 99.5686 27.4118 99.5687 27.5459 99.7706C27.613 99.9053 27.613 100.107 27.4118 100.242C27.2776 100.309 15.5397 107.782 13.5946 110.004C13.5275 110.071 13.3933 110.071 13.3263 110.071Z" fill="#333333"/>
<path d="M22.113 97.1452C22.0459 97.1452 22.113 97.1452 22.113 97.1452C21.9118 97.1452 21.7776 97.0105 21.7776 96.8086C21.7776 96.6066 22.5825 78.6989 22.3813 75.4675C22.18 72.438 21.241 71.5628 21.241 71.5628C21.1069 71.4281 21.1069 71.2262 21.1739 71.0915C21.3081 70.9569 21.5093 70.9569 21.6435 71.0242C21.7776 71.0915 22.7837 72.1014 22.9849 75.4001C23.1861 78.6989 22.3813 96.1354 22.3813 96.8759C22.3813 97.0106 22.2471 97.1452 22.113 97.1452Z" fill="#333333"/>
<path d="M24.1923 125.218C24.1252 125.151 24.1252 125.218 24.1923 125.218C23.924 125.151 23.8569 125.016 23.8569 124.815C25.2655 116.871 34.0521 111.283 34.3875 111.081C34.5217 111.013 34.7229 111.013 34.857 111.215C34.9241 111.35 34.9241 111.552 34.7229 111.687C34.6558 111.754 25.8021 117.342 24.4606 125.016C24.4606 125.084 24.3264 125.218 24.1923 125.218Z" fill="#333333"/>
<path d="M87.7781 709.979C88.0464 711.393 91.1989 716.038 107.095 717.452C122.992 718.866 142.443 713.076 152.035 711.999C160.084 711.124 170.346 708.094 173.431 707.084C173.968 706.95 174.371 706.411 174.371 705.805C174.371 704.863 174.303 703.314 174.236 701.429C161.224 701.631 142.846 706.478 120.778 709.508C104.144 711.797 92.9428 707.421 88.0464 704.795C87.7781 706.546 87.711 708.229 87.7781 709.979Z" fill="white"/>
<path d="M172.224 670.461C166.389 670.999 163.974 675.846 161.157 677.462C158.34 679.078 150.023 679.751 150.761 669.182C151.498 658.612 143.382 655.448 143.382 655.448C141.169 655.515 135.199 667.364 125.071 680.155C114.943 692.946 90.6624 699.679 89.5892 700.082C88.9855 700.284 88.516 702.506 88.1807 704.795C93.0771 707.353 104.278 711.797 120.913 709.508C142.913 706.478 161.358 701.631 174.371 701.429C174.169 694.495 173.767 682.646 173.096 677.597C172.694 675.644 172.493 673.086 172.224 670.461Z" fill="black"/>
<path d="M150.76 669.249C150.089 679.818 158.339 679.145 161.157 677.529C163.974 675.914 166.455 671.067 172.224 670.528C171.687 663.728 171.285 656.458 171.285 656.458L143.315 655.515C143.382 655.515 151.431 658.747 150.76 669.249Z" fill="#FFEDE5"/>
<path d="M120.04 695.37C133.187 694.158 150.76 671.538 150.76 671.538C150.693 670.797 150.693 669.989 150.76 669.249C151.431 658.679 143.382 655.515 143.382 655.515C141.169 655.582 135.199 667.431 125.071 680.222C121.181 685.204 115.077 689.244 109.107 692.34C112.193 694.764 116.083 695.841 120.04 695.37Z" fill="black"/>
<path d="M40.8264 705.939C41.9666 709.508 49.2777 710.787 65.4424 710.787C81.6072 710.787 89.3207 681.973 95.894 676.116C102.467 670.326 116.083 650.399 116.083 646.965C116.083 645.955 114.071 643.464 111.187 640.368C108.303 646.561 101.864 659.016 92.4061 667.97C84.5585 675.443 84.2231 700.554 64.7047 705.199C55.5826 707.353 47.0642 704.93 40.6251 701.766C40.3568 703.179 40.491 704.593 40.8264 705.939Z" fill="white"/>
<path d="M91.1989 621.046C84.2903 628.452 86.5037 637.473 86.1684 641.108C85.833 644.744 73.4243 645.686 71.4792 644.878C69.534 644.071 67.4547 641.041 63.5644 641.108C61.2169 641.176 59.0705 642.32 57.7961 644.273C56.79 657.131 54.979 672.413 54.1741 678.472C52.8326 688.503 47.0643 691.061 44.1801 693.081C42.1679 694.428 40.8264 698.4 40.5581 701.833C46.9972 704.997 55.5156 707.421 64.6376 705.266C84.2232 700.688 84.4915 675.51 92.3391 668.037C101.797 659.083 108.236 646.696 111.12 640.435C104.144 632.895 92.0709 622.056 91.1989 621.046Z" fill="black"/>
<path d="M63.497 641.041C67.4544 640.974 69.4667 644.003 71.4118 644.811C73.3569 645.619 85.7656 644.676 86.101 641.041C86.4364 637.406 84.2229 628.384 91.1316 620.979C89.9242 619.498 85.7656 611.756 85.7656 611.756L58.1982 625.422C58.6677 628.654 58.3324 635.925 57.6616 644.205C59.0031 642.253 61.2165 641.108 63.497 641.041Z" fill="#FFEDE5"/>
<path d="M60.546 686.282C70.3388 682.714 71.412 644.811 71.412 644.811C69.4669 644.003 67.3876 640.974 63.4973 641.041C61.1497 641.108 59.0033 642.253 57.7289 644.205C56.7228 657.064 54.9118 672.346 54.1069 678.405C53.7715 681.502 52.6983 684.464 51.0215 687.09C54.241 687.628 57.5277 687.292 60.546 686.282Z" fill="black"/>
<path d="M176.316 267.201C176.316 267.201 211.731 327.387 211.731 357.884C211.731 388.381 181.279 490.374 180.743 504.108C180.206 517.842 191.005 547.867 187.584 578.162C184.163 608.457 171.285 656.391 171.285 656.391C171.285 656.391 153.98 659.016 143.315 655.448C143.315 655.448 142.846 565.371 136.541 528.546C130.236 491.721 125.34 413.694 125.34 413.694C125.34 413.694 60.6134 483.911 58.5341 495.558C56.4548 507.205 68.3269 514.879 73.9611 550.022C79.5953 585.164 85.8332 611.823 85.8332 611.823C85.8332 611.823 73.0891 626.904 58.2658 625.49C58.2658 625.49 3.06401 500.742 6.21649 484.45C9.36896 468.158 73.2233 348.19 75.5709 333.985C77.9184 319.78 79.5953 301.737 82.5465 283.224L176.316 267.201Z" fill="#333333"/>
<path d="M132.449 307.662C154.852 303.892 172.627 290.427 183.426 280.06C179.267 272.25 176.316 267.269 176.316 267.269L82.4795 283.224C81.8087 287.398 81.205 291.572 80.6685 295.679C89.321 302.276 106.894 311.97 132.449 307.662Z" fill="#3B2645"/>
<g opacity="0.5">
<path opacity="0.5" d="M125.407 413.694V385.419C125.407 385.419 116.955 368.588 116.15 354.518L118.096 395.989L99.7173 442.374L125.407 413.694Z" fill="#323232"/>
</g>
<path d="M82.5464 245.119C84.4915 254.747 82.5464 283.224 82.5464 283.224C82.5464 283.224 87.2416 293.793 112.461 297.967C137.681 302.141 176.316 267.201 176.316 267.201C172.694 258.988 172.09 249.563 172.358 242.292C116.083 233.607 82.5464 245.119 82.5464 245.119Z" fill="#FDBCA0"/>
<path d="M173.834 259.661C172.56 253.939 172.09 248.149 172.358 242.292C165.584 241.215 159.145 240.474 153.041 239.936L154.584 253.535L173.834 259.661Z" fill="#DE835C"/>
<path d="M115.413 173.825C150.962 170.594 161.761 140.231 164.98 123.266L155.456 120.573L109.041 115.861L95.4248 119.362C88.2479 144.203 84.4918 176.585 115.413 173.825Z" fill="#FDBCA0"/>
<path d="M191.676 130.604L177.456 126.7C168.468 204.39 185.371 202.303 185.371 202.303L190.066 189.983L191.676 130.604Z" fill="#FDBCA0"/>
<path d="M173.566 230.578C185.572 219.807 185.371 202.303 185.371 202.303C185.371 202.303 168.401 204.39 177.456 126.7L164.98 123.267C161.694 140.232 150.895 170.661 115.413 173.826C84.4917 176.586 88.2478 144.204 95.4918 119.429L81.4733 123.065C81.4733 123.065 65.1744 176.451 64.7049 195.773C64.3695 208.16 71.7476 224.923 77.1806 235.358C113.602 219.807 173.566 230.578 173.566 230.578Z" fill="#FEE6C6"/>
<path d="M172.358 242.292C172.493 238.32 172.895 234.415 173.633 230.511C173.633 230.511 113.669 219.739 77.1807 235.29C80.199 241.147 82.5466 245.052 82.5466 245.052C82.5466 245.052 116.084 233.607 172.358 242.292Z" fill="#3B2645"/>
<path d="M177.456 126.633C177.456 126.633 184.029 163.391 159.883 206.612L157.133 235.964L159.48 302.95C159.48 302.95 148.748 305.844 143.047 305.844C137.346 305.844 129.364 308.47 129.364 308.47L128.224 297.631L122.187 297.766C122.187 297.766 120.443 275.751 127.955 257.709C135.468 239.667 139.09 228.761 140.297 210.18C141.504 191.599 137.346 166.69 151.096 128.787L177.456 126.633Z" fill="white"/>
<path d="M190.133 189.982L186.109 174.7L185.438 202.235L190.133 189.982Z" fill="#DE835C"/>
<path d="M112.327 293.861C113.031 293.861 113.602 292.987 113.602 291.908C113.602 290.83 113.031 289.956 112.327 289.956C111.623 289.956 111.053 290.83 111.053 291.908C111.053 292.987 111.623 293.861 112.327 293.861Z" fill="#DE835C"/>
<path d="M111.321 94.7218C111.321 94.7218 111.59 122.459 96.6991 159.351C81.8087 196.244 80.6014 209.237 84.0892 245.052C87.577 280.868 78.9916 309.479 78.9916 309.479C78.9916 309.479 39.2838 317.76 23.5215 296.284C23.5215 296.284 42.9729 251.313 51.6925 197.59C60.4121 143.867 81.4733 122.93 81.4733 122.93C81.4733 122.93 85.4977 111.35 94.6198 112.562C94.6198 112.697 101.998 94.2505 111.321 94.7218Z" fill="white"/>
<path d="M61.6866 273.866C61.4854 273.866 61.3513 273.731 61.3513 273.529C58.6683 223.442 73.1562 177.932 80.9368 153.494L81.4734 151.878C81.5404 151.676 81.7417 151.609 81.8758 151.676C82.077 151.743 82.1441 151.945 82.077 152.08L81.5404 153.696C73.7599 178.134 59.339 223.509 62.022 273.462C62.022 273.731 61.8878 273.866 61.6866 273.866Z" fill="#333333"/>
<path d="M84.9614 141.847H84.8943C84.6931 141.78 84.626 141.578 84.6931 141.443C90.2603 122.257 94.2847 112.697 94.3518 112.63C94.4189 112.428 94.6201 112.36 94.8213 112.428C95.0225 112.495 95.0897 112.697 95.0226 112.899C94.9555 112.966 90.931 122.526 85.4309 141.645C85.2297 141.713 85.0956 141.847 84.9614 141.847Z" fill="#333333"/>
<path d="M60.5463 183.251H60.4792C60.278 183.183 60.2109 183.049 60.2109 182.847C66.0464 160.159 81.0039 123.334 81.138 122.93C81.2051 122.728 81.4063 122.661 81.6075 122.728C81.8088 122.795 81.8758 122.997 81.8088 123.199C81.6746 123.536 66.7171 160.361 60.8817 182.981C60.8817 183.116 60.7475 183.251 60.5463 183.251Z" fill="#333333"/>
<path d="M128.291 298.035C128.09 298.035 127.956 297.9 127.956 297.698C127.956 297.496 127.821 275.011 132.181 264.576C132.248 264.374 132.45 264.307 132.651 264.374C132.852 264.441 132.919 264.643 132.852 264.845C128.559 275.145 128.693 297.496 128.693 297.698C128.626 297.9 128.492 298.035 128.291 298.035Z" fill="#333333"/>
<path d="M135.266 294.197C135.065 294.197 134.931 294.063 134.931 293.861C134.931 293.659 134.193 274.876 138.218 260.738C142.242 246.735 143.315 222.836 143.315 222.634C143.315 222.432 143.45 222.297 143.651 222.297C143.852 222.297 143.986 222.432 143.986 222.634C143.986 222.903 142.913 246.803 138.888 260.94C134.864 274.943 135.602 293.659 135.602 293.794C135.602 293.995 135.468 294.197 135.266 294.197Z" fill="#333333"/>
<path d="M148.95 264.037C148.883 264.037 148.883 264.037 148.95 264.037C148.681 263.97 148.614 263.835 148.614 263.633C151.23 249.899 149.151 221.624 149.151 221.287C149.151 221.085 149.285 220.951 149.486 220.951C149.687 220.951 149.822 221.085 149.822 221.287C149.822 221.557 151.901 249.967 149.285 263.768C149.218 263.902 149.084 264.037 148.95 264.037Z" fill="#333333"/>
<path d="M153.913 209.775C153.645 209.708 153.578 209.573 153.578 209.371C153.645 209.102 157.803 183.385 161.828 171.536C161.895 171.334 162.096 171.267 162.23 171.334C162.431 171.402 162.498 171.604 162.431 171.738C158.474 183.52 154.248 209.169 154.248 209.439C154.248 209.641 154.114 209.775 153.913 209.775Z" fill="#333333"/>
<path d="M148.95 206.948C148.815 206.948 148.681 206.813 148.614 206.679C148.614 206.544 146.401 195.167 149.285 174.633C149.285 174.432 149.486 174.297 149.687 174.364C149.889 174.364 150.023 174.566 149.956 174.768C147.139 195.234 149.285 206.477 149.285 206.612C149.285 206.746 149.151 206.948 148.95 206.948Z" fill="#333333"/>
<path d="M155.053 73.313L155.455 120.573H108.571L113.065 78.4295L155.053 73.313Z" fill="#FDBCA0"/>
<path d="M113.065 78.4295C113.065 78.4295 119.906 123.199 155.254 96.9431L155.053 73.313L113.065 78.4295Z" fill="#DE835C"/>
<path d="M105.524 71.2531C108.553 70.3878 109.61 64.758 107.886 58.6787C106.162 52.5994 102.309 48.3726 99.2804 49.2379C96.2519 50.1032 95.1947 55.733 96.9189 61.8123C98.6431 67.8916 102.496 72.1184 105.524 71.2531Z" fill="#DE835C"/>
<path d="M155.12 77.7563C155.12 77.7563 154.986 89.2684 154.45 96.9431C154.45 96.9431 148.949 114.38 151.431 130.604C153.913 146.829 153.108 158.812 149.218 164.602L153.578 162.515C153.578 162.515 175.913 162.784 175.645 130.133C175.645 130.133 186.913 111.821 170.011 90.3456C153.108 68.8698 162.633 57.1558 162.633 57.1558C162.633 57.1558 155.657 60.6565 155.12 77.7563Z" fill="#3B2645"/>
<path d="M162.498 57.0884C162.498 57.0884 155.657 60.6565 155.053 77.7563C155.053 77.7563 154.919 89.2684 154.382 96.9431C157.065 89.8069 159.346 82.5362 161.224 75.1307C157.401 63.3493 162.498 57.0884 162.498 57.0884Z" fill="#3B2645"/>
<path d="M165.309 60.807C167.129 54.7562 166.16 49.1105 163.146 48.1972C160.132 47.2838 156.213 51.4486 154.393 57.4995C152.573 63.5504 153.541 69.196 156.555 70.1093C159.57 71.0227 163.489 66.8579 165.309 60.807Z" fill="#FDBCA0"/>
<path d="M101.662 27.1973C101.662 27.1973 100.455 62.2049 105.083 76.8811C109.711 91.5573 121.248 100.848 128.827 100.848C136.407 100.848 151.163 95.3274 156.931 71.7646C162.7 48.2018 162.029 18.6474 137.279 10.9054C112.528 3.16331 101.662 19.388 101.662 27.1973Z" fill="#FDBCA0"/>
<path d="M159.748 52.5106C159.748 52.5106 158.407 43.0181 153.309 37.8343C148.211 32.6505 137.748 29.1498 139.693 20.8691C139.693 20.8691 132.986 24.8412 120.912 24.8412C108.839 24.8412 100.522 34.2663 101.729 50.2889L100.186 49.2118C100.186 49.2118 94.4181 26.4569 101.461 15.416C108.571 4.37521 125.339 -2.6263 138.888 1.21107C152.437 5.04843 167.663 14.1369 166.321 31.91C165.919 37.565 165.114 43.1528 163.907 48.6732C163.907 48.6059 160.016 49.2118 159.748 52.5106Z" fill="#3B2645"/>
<path d="M112.461 55.2708C111.388 55.2708 110.516 54.4629 110.449 53.3858L110.382 52.174C110.382 51.0968 111.187 50.2216 112.26 50.1543C113.333 50.1543 114.205 50.9622 114.272 52.0393L114.339 53.2511C114.339 54.3283 113.534 55.2708 112.461 55.2708Z" fill="#333333"/>
<path d="M142.443 56.2807C141.37 56.146 140.632 55.1362 140.833 54.059L141.035 52.8472C141.169 51.7701 142.175 51.0295 143.248 51.2315C144.321 51.3661 145.059 52.376 144.858 53.4531L144.657 54.6649C144.455 55.7421 143.449 56.4153 142.443 56.2807Z" fill="#333333"/>
<path d="M105.486 47.0575C105.486 47.0575 107.297 45.0379 111.522 44.9706C115.748 44.9032 117.09 45.3072 117.358 43.9607C117.626 42.6143 108.571 39.1809 105.486 47.0575Z" fill="#333333"/>
<path d="M149.553 46.4516C149.553 46.4516 147.541 44.5665 142.98 44.7685C138.419 44.9705 137.077 45.4417 136.742 44.1626C136.407 42.8835 145.998 38.7768 149.553 46.4516Z" fill="#333333"/>
<path d="M137.614 76.208L119.906 75.6021C119.906 75.6021 120.845 87.7874 128.76 87.5854C136.675 87.3834 137.614 76.208 137.614 76.208Z" fill="white"/>
<path d="M127.687 70.8896C126.547 70.8896 125.474 70.6203 124.602 70.2164C123.864 69.8125 123.461 69.2739 123.26 68.668C122.858 67.1196 123.663 63.3496 124.602 58.637L124.937 57.1559C126.48 49.5485 122.321 47.4615 122.12 47.3942C121.919 47.3269 121.852 47.0576 121.919 46.8556C121.986 46.6537 122.254 46.5863 122.455 46.6537C122.657 46.721 127.352 49.0773 125.675 57.2906L125.339 58.7717C124.4 63.2149 123.663 67.1196 123.998 68.466C124.132 68.87 124.4 69.2066 124.937 69.5432C126.211 70.2164 128.224 70.3511 130.102 69.7452C130.303 69.6778 130.571 69.8125 130.638 70.0144C130.705 70.2164 130.571 70.4857 130.37 70.553C129.498 70.755 128.559 70.8896 127.687 70.8896Z" fill="#333333"/>
<path d="M191.676 130.604C191.676 130.604 205.694 131.278 212.67 151.34C219.645 171.334 241.713 229.501 242.585 240.205C243.457 250.909 240.17 259.526 224.944 262.691C211.999 265.384 177.657 255.352 174.84 255.083C172.023 254.814 164.041 254.612 161.358 249.967C158.675 245.322 157.2 237.445 157.2 237.445C157.2 237.445 150.157 234.752 148.95 234.752C147.742 234.752 139.224 235.29 138.419 234.011C137.614 232.732 137.614 230.309 137.882 229.164C137.882 229.164 136.407 226.471 136.876 224.856C136.876 224.856 135.334 220.951 135.468 220.076C135.602 219.2 139.76 216.642 140.632 216.44C141.504 216.238 151.565 215.834 151.565 215.834C151.565 215.834 148.547 212.132 148.011 211.997C147.474 211.862 140.297 212.132 140.297 212.132L140.163 213.949C140.163 213.949 138.218 212.266 137.882 211.324C137.547 210.381 138.151 207.621 138.956 207.284C139.76 206.948 149.285 203.784 152.169 204.794C155.053 205.803 164.242 211.458 165.45 213.343C166.657 215.228 173.432 234.146 175.578 235.56C177.724 236.974 188.724 238.522 206.298 234.752L181.279 171.267L191.676 130.604Z" fill="#FDBCA0"/>
</svg>
