<?xml version="1.0" encoding="UTF-8"?><!DOCTYPE svg PUBLIC "-//W3C//DTD SVG 1.1//EN" "http://www.w3.org/Graphics/SVG/1.1/DTD/svg11.dtd"><svg xmlns="http://www.w3.org/2000/svg" xmlns:xlink="http://www.w3.org/1999/xlink"><defs/><symbol id="apple" viewBox="0 0 24 24">
<path d="M9.23005 22.7501C9.22005 22.7501 9.21005 22.7501 9.19005 22.7501C7.51005 22.7401 6.31005 21.2301 5.46005 19.9201C3.29005 16.5901 2.85005 12.4001 4.42005 9.97007C5.47005 8.34007 7.17005 7.33005 8.85005 7.33005C9.72005 7.33005 10.4001 7.57007 11.0001 7.79007C11.4801 7.96007 11.89 8.11005 12.32 8.11005C12.7 8.11005 13.03 7.98007 13.45 7.82007C14.03 7.60007 14.74 7.33005 15.77 7.33005C17.25 7.33005 18.7701 8.12006 19.8301 9.46006C19.9701 9.63006 20.0201 9.86007 19.9801 10.0701C19.9401 10.2901 19.8001 10.4701 19.6101 10.5801C18.4801 11.2001 17.86 12.3301 17.95 13.6101C18.04 14.9101 18.8401 16.0101 20.0401 16.4601C20.2301 16.5301 20.3901 16.6801 20.4701 16.8701C20.5501 17.0601 20.55 17.2801 20.46 17.4601C20.02 18.4401 19.8001 18.8901 19.2301 19.7701C18.2801 21.2301 17.0801 22.7301 15.4401 22.7501C14.7301 22.7501 14.2501 22.5401 13.8301 22.3401C13.4101 22.1501 13 22.0001 12.35 21.9801C11.65 21.9801 11.28 22.1501 10.85 22.3401C10.41 22.5401 9.93005 22.7501 9.23005 22.7501ZM8.85005 8.83005C7.67005 8.83005 6.46005 9.58006 5.68005 10.7801C4.62005 12.4201 4.63005 15.8901 6.72005 19.1001C7.37005 20.1001 8.24005 21.2401 9.21005 21.2501C9.57005 21.2401 9.84005 21.1401 10.21 20.9801C10.7 20.7601 11.31 20.4901 12.32 20.4801C13.31 20.4601 13.9501 20.7501 14.4401 20.9801C14.8001 21.1501 15.0401 21.2601 15.4101 21.2501C16.3501 21.2401 17.26 20.0201 17.96 18.9601C18.33 18.3901 18.54 18.0301 18.77 17.5201C17.43 16.7301 16.5501 15.3401 16.4401 13.7201C16.3301 12.1901 16.95 10.7601 18.09 9.81006C17.39 9.19006 16.5601 8.84006 15.7601 8.84006C15.0101 8.84006 14.5101 9.03008 13.9801 9.23008C13.4801 9.42008 12.96 9.62006 12.31 9.62006C11.62 9.62006 11.05 9.41007 10.49 9.22007C9.96005 9.01007 9.45005 8.83005 8.85005 8.83005ZM11.82 7.13007C11.79 7.13007 11.7501 7.13007 11.7201 7.13007C11.3701 7.12007 11.0701 6.86007 11.0101 6.51007C10.8001 5.38007 11.2 4.08005 12.07 3.02005C12.87 2.05005 14.1901 1.33006 15.3601 1.25006C15.7701 1.23006 16.1001 1.50008 16.1501 1.89008C16.3201 3.06008 15.9501 4.34007 15.1201 5.41007C14.3101 6.46007 13.02 7.13007 11.82 7.13007ZM14.6501 2.95008C14.1101 3.17008 13.5801 3.54007 13.2301 3.97007C12.9001 4.37007 12.59 4.93007 12.49 5.51007C13.03 5.33007 13.5701 4.97006 13.9401 4.49006C14.1401 4.24006 14.5201 3.66008 14.6501 2.95008Z" fill="black"/>
</symbol><symbol id="play-market" viewBox="0 0 24 24">
<path d="M16.8901 15.9601C16.7001 15.9601 16.5001 15.8801 16.3601 15.7401L13.1701 12.5501C12.8801 12.2601 12.8801 11.7801 13.1701 11.4901L16.3901 8.27011C16.6201 8.04011 16.9701 7.99013 17.2601 8.13013L21.7501 10.3801C22.3701 10.6801 22.7601 11.3001 22.7601 12.0001C22.7601 12.7001 22.3701 13.3201 21.7501 13.6201L17.2401 15.8801C17.1201 15.9301 17.0001 15.9601 16.8901 15.9601ZM14.7601 12.0201L17.0301 14.2901L21.0601 12.2701C21.0601 12.2701 21.0601 12.2701 21.0701 12.2701C21.2201 12.2001 21.2401 12.0701 21.2401 12.0001C21.2401 11.9301 21.2201 11.8001 21.0701 11.7301L17.0601 9.72012L14.7601 12.0201Z" fill="black"/>
<path d="M3.07 22.75C2.74 22.75 2.4 22.66 2.11 22.47C1.57 22.14 1.25 21.56 1.25 20.92V3.06002C1.25 2.43002 1.57 1.85003 2.11 1.51003C2.65 1.18003 3.31 1.14002 3.88 1.43002L17.25 8.12002C17.47 8.23002 17.62 8.43004 17.65 8.67004C17.68 8.91004 17.61 9.15003 17.44 9.32003L4.64 22.12C4.58 22.18 4.52 22.22 4.44 22.26L3.86 22.55C3.62 22.69 3.34 22.75 3.07 22.75ZM3.07 2.75002C3 2.75002 2.94 2.78001 2.9 2.80001C2.84 2.83001 2.75 2.92003 2.75 3.07003V20.93C2.75 21.09 2.84 21.17 2.9 21.2C2.96 21.24 3.07 21.28 3.22 21.21L3.68 20.98L15.65 9.01003L3.21 2.79003C3.16 2.76003 3.11 2.75002 3.07 2.75002Z" fill="black"/>
<path d="M4.11999 22.35C3.88999 22.35 3.65999 22.24 3.50999 22.04C3.28999 21.74 3.32999 21.33 3.58999 21.07L13.17 11.49C13.31 11.35 13.5 11.27 13.7 11.27C13.9 11.27 14.09 11.35 14.23 11.49L17.42 14.68C17.59 14.85 17.67 15.09 17.63 15.33C17.59 15.57 17.44 15.77 17.23 15.88L4.46999 22.27C4.34999 22.32 4.23999 22.35 4.11999 22.35ZM13.7 13.08L7.92999 18.85L15.62 15L13.7 13.08Z" fill="black"/>
<path d="M13.6998 12.7701C13.5098 12.7701 13.3198 12.7001 13.1698 12.5501L3.55979 2.9401C3.26979 2.6501 3.26979 2.1701 3.55979 1.8801C3.84979 1.5901 4.32979 1.5901 4.61979 1.8801L14.2298 11.4901C14.5198 11.7801 14.5198 12.2601 14.2298 12.5501C14.0898 12.7001 13.8898 12.7701 13.6998 12.7701Z" fill="black"/>
<path d="M16.8998 15.9799C16.7198 15.9799 16.5298 15.9099 16.3898 15.7599L16.3598 15.7299C16.0698 15.4399 16.0698 14.9599 16.3698 14.6699C16.6698 14.3799 17.1398 14.3799 17.4298 14.6799C17.7198 14.9699 17.7298 15.4699 17.4398 15.7599C17.2798 15.9099 17.0898 15.9799 16.8998 15.9799Z" fill="black"/>
</symbol></svg>